<svg viewBox="0 0 14770 4632" xmlns="http://www.w3.org/2000/svg" xml:space="preserve" style="fill-rule:evenodd;clip-rule:evenodd;stroke-linejoin:round;stroke-miterlimit:2">
  <path d="M2752.47 2292.5H0v-91.7h14769.3v91.7h-605.9c-54.9-27.44-121.6-41.16-200.1-41.16h-1382.5c-26.2 0-50.5 4.67-72.9 14.01-16.7 6.97-31.7 16.02-45.1 27.15h-988.5c-85.8-27.44-177.3-41.16-274.7-41.16h-983.3c-26.2 0-50.4 4.67-72.9 14.01-16.7 6.97-31.7 16.02-45.1 27.15h-485.74v-41.16h-364.2v41.16H7931.58l-13.94-14.54c-26.15-27.08-57.43-44.13-93.85-51.13-36.42-7-71.91-3.5-106.46 10.51-27.92 12.76-51.59 31.15-70.99 55.16h-503.69c-24.95-31.43-56.58-52.62-94.88-63.57-41.09-10.27-80.55-7.94-118.37 7-30.65 12.11-55.93 30.97-75.85 56.57H5169.27c-7.48-9.81-15.86-18.62-25.13-26.45-14.95-12.61-31.52-22.41-49.73-29.41-18.21-7.01-37.12-11.21-56.73-12.61-19.61-1.4-39.22.23-58.83 4.9-39.22 10.95-71.09 32.14-95.61 63.57h-435.28v-41.16h-1480.6c-62.57 0-118.6 7.94-168.09 23.82-16.23 5.2-31.83 10.98-46.8 17.34Zm11534.63 91.7h482.2v91.7h-418c-12.7-24.15-27.8-47.41-45.5-69.77-5.9-7.53-12.2-14.84-18.7-21.93Zm99.4 183.4h382.8v91.7h-366.2c-2.5-29.27-8-59.84-16.6-91.7Zm18.1 183.4h364.7v91.7h-364.7V2751Zm-.1 183.4h364.8v91.7h-370.1c3.3-29.24 5.1-59.81 5.3-91.7Zm-21.9 183.4h386.7v91.7h-417.5c8.1-19.3 15.4-39.39 21.9-60.27 3.3-10.26 6.2-20.74 8.9-31.43Zm-78.2 183.4h464.9v91.7h-536.6c20.6-21.68 39.9-45.24 57.7-70.68 4.8-6.86 9.5-13.87 14-21.02Zm-182.9 183.4h647.8v91.7h-847.7c34.9-9.79 69.6-22.57 104-38.36 32.9-15.05 64.9-32.83 95.9-53.34ZM13806 3668h963.3v91.7h-857.2L13806 3668Zm212.3 183.4h751v91.7h-644.8l-106.2-91.7Zm212.3 183.4h538.7v91.7h-432.5l-106.2-91.7Zm212.4 183.4h326.3v91.7H0v-91.7h502.76l-9.143 41.83h340.384l9.268-41.83h350.191l-9.27 41.83h341.79l9.26-41.83h1225.58c32.32 13.19 64.98 23.17 97.98 29.92 38.75 7.94 74.94 11.91 108.56 11.91h1313.91c26.15 0 50.43-4.67 72.84-14.01 17.27-7.19 32.74-16.47 46.4-27.82h443.86v41.83h364.2v-41.83h660.1c14.35 20.03 32.21 35.84 53.59 47.43 27.55 14.95 57.19 22.42 88.95 22.42 32.68 0 63.26-7.47 91.75-22.42 22.1-11.59 40.4-27.4 54.91-47.43h657.37v41.83h367v-41.83h423.03v41.83h364.2v-41.83h1314.8l15.92 16.62c17.74 18.67 38.05 32.21 60.93 40.62 22.88 8.4 45.53 12.61 67.94 12.61 25.21 0 49.02-4.67 71.44-14.01 22.41-9.34 41.79-22.18 58.13-38.52 5.43-5.44 10.51-11.21 15.22-17.32H10097c13.7 11.35 29.2 20.63 46.4 27.82 22.5 9.34 46.7 14.01 72.9 14.01h983.3c98.2 0 190.4-13.94 276.8-41.83h920.9v41.83h364.2v-41.83H13880l48.3 41.83h563.1l-48.4-41.83ZM522.802 4126.5H0v-91.7h542.844l-20.042 91.7Zm40.084-183.4H0v-91.7h582.928l-20.042 91.7Zm-277.32-183.4H0V3668h307.212l-21.646 91.7Zm43.292-183.4H0v-91.7h350.504l-21.646 91.7Zm354.587-183.4H0v-91.7h703.739l-20.294 91.7Zm40.588-183.4H0v-91.7h437.653l-1.467 6.22h306.766l-18.919 85.48Zm-264.734-183.4H0v-91.7h480.945l-21.646 91.7Zm43.292-183.4H0V2751h824.849l-10.458 46.64H513.227l-10.636 45.06Zm342.821-183.4H0v-91.7h865.975l-20.563 91.7Zm41.126-183.4H0v-91.7h907.101l-20.563 91.7Zm361.092-91.7h350.19l-20.28 91.7h-350.19l20.28-91.7Zm691.83 0h673.59c-15.24 14.59-29.28 30.07-42.11 46.44-11.59 14.79-22.24 29.87-31.95 45.26H1918.9l20.56-91.7Zm9730.34 0h734.3c-4.6 16.2-6.8 33.08-6.8 50.64v41.06h-610c-36.1-34.16-75.2-64.72-117.5-91.7Zm-2057.24 0h427.04c-4.6 16.2-6.8 33.08-6.8 50.64v41.06h-420.24v-91.7Zm-1593.07 0h1228.87v91.7H8107.39l-87.9-91.7Zm-838.52 0h425.64c-.89 7.39-1.34 14.94-1.34 22.63v69.07h-423.03v-69.07c0-7.7-.42-15.24-1.27-22.63Zm-1957.23 0h1574.93l-52.75 91.7H5276.49l-52.75-91.7Zm-775.78 0h397.66c-.83 7.39-1.25 14.93-1.25 22.63v69.07h-396.41v-91.7Zm9588.24 275.1h-1274.7v-43.76h1201.8c7.5 0 15.7.47 24.5 1.4 8.9.94 17.3 3.97 25.2 9.11 8 5.13 14.5 13.07 19.7 23.81 1.3 2.81 2.5 5.96 3.5 9.44Zm-1638.9 0H11930c-18.2-32.28-38.3-62.85-60.3-91.7h527.6v91.7Zm1643.1 183.4h-1278.9V2751h1278.9v91.7Zm-13.1 183.4h-1265.8v-91.7h1278.8c-.6 33.25-4.9 63.82-13 91.7Zm-169.5 183.4h-1096.3v-91.7h1219.8c-8.2 10.69-17.3 20.7-27.1 30.03-27.1 25.77-59.3 46.33-96.4 61.67Zm-950.7 183.4h-145.6v-91.7h145.6v91.7Zm0 183.4h-145.6v-91.7h145.6v91.7Zm443 183.4h-588.6V3668h482.6l106 91.7Zm211.9 183.4h-800.5v-91.7h694.6l105.9 91.7Zm212 183.4h-1012.5v-91.7h906.5l106 91.7Zm-12560.22 0H863.586l20.317-91.7h350.187l-20.31 91.7Zm1398.26 0H1555.56l20.32-91.7h958.05c3.15 4.9 6.38 9.71 9.7 14.42 20.46 29.07 43.26 54.83 68.41 77.28Zm2232.33 0H4458.5c4.18-15.82 6.27-32.48 6.27-49.97v-41.73h379.6v91.7Zm970.91 0h-606.71v-91.7h554.36l52.35 91.7Zm999.96 0h-604.08l52.12-91.7h551.96v91.7Zm790.03 0h-423.03v-91.7h423.03v91.7Zm1591.19 0H7969.47v-91.7h1139.17l87.82 91.7Zm842.64 0h-427.74c.8-7.16 1.2-14.48 1.2-21.95v-69.75h420.24v41.73c0 17.49 2.1 34.15 6.3 49.97Zm2358.2 0h-726.5c42.2-26.99 81.3-57.56 117.2-91.7h609.3v91.7ZM924.536 3851.4h350.194l-20.32 91.7H904.22l20.316-91.7ZM1966.38 3668h489.7v80.75c0 3.68.03 7.32.08 10.95h-509.85l20.07-91.7Zm-349.87 183.4h847.6c3.87 23.16 9.13 45.21 15.78 66.15 2.77 8.7 5.7 17.22 8.79 25.55h-892.49l20.32-91.7Zm390.01-366.8h449.56v91.7h-469.63l20.07-91.7Zm-961.67-183.4h350.19l-19.92 91.7h-350.19l19.92-91.7Zm691.97 0h719.26v91.7h-739.17l19.91-91.7Zm360.65-183.4h358.61v91.7h-699.34l18.57-85.48h320.78l1.38-6.22Zm-682.51 91.7h-350.19l18.57-85.48h350.19l-18.57 85.48Zm723.44-275.1h317.68v91.7h-338.14l20.46-91.7ZM1166.49 2751h350.19l-10.31 46.64h-350.19l10.31-46.64Zm690.72 0h599.03c-.11 3.91-.16 7.78-.16 11.62v80.08h-297.21l10.05-45.06h-322.17l10.46-46.64Zm-650.15-183.4h350.19l-20.28 91.7h-350.19l20.28-91.7Zm691.27 0h595.02c-10.95 28.56-19.41 57.38-25.36 86.46-.36 1.75-.71 3.5-1.06 5.24h-589.16l20.56-91.7Zm7714.23 0h420.24v91.7h-420.24v-91.7Zm-1417.26 0h1053.06v91.7H8283.2l-87.9-91.7Zm-1013.06 0h423.03v91.7h-423.03v-91.7Zm-1852.99 0h1363.91l-52.76 91.7H5382.01l-52.76-91.7Zm-881.29 0h396.41v91.7H2852.59c1.76-2.05 3.6-4.03 5.51-5.94 25.21-25.21 61.63-37.82 109.26-37.82h1480.6v-47.94ZM11974.7 2751h422.6v91.7h-390.6c-8.5-29.96-18.6-59.22-30.4-87.78-.5-1.31-1-2.62-1.6-3.92Zm-558.6-91.7H10397v-43.76h802.6c71 0 135.7 11.44 194 34.32 7.6 2.99 15.1 6.13 22.5 9.44Zm981.2 366.8h-359.4c-2-31.2-5.6-61.77-10.6-91.7h370v91.7Zm0 183.4h-357.2v-91.7h357.2v91.7Zm0 183.4h-357.2v-91.7h357.2v91.7Zm0 183.4h-369.7c4.9-29.89 8.4-60.45 10.4-91.7h359.3v91.7Zm0 183.4h-422c.3-.85.7-1.69 1-2.54 12-28.94 22.3-58.66 30.9-89.16h390.1v91.7Zm0 183.4h-527c22-28.88 42.1-59.44 60.3-91.7h466.7v91.7Zm-7552.93 0h-379.6v-91.7h379.6v91.7Zm866.2 0h-502v-91.7h449.65l52.35 91.7Zm1104.67 0h-499.83l52.12-91.7h447.71v91.7Zm790.03 0h-423.03v-91.7h423.03v91.7Zm1415.55 0H7969.47v-91.7H8933l87.82 91.7Zm1011.98 0h-420.24v-91.7h420.24v91.7ZM2820.28 3668h1280.29v91.7H2820.52c-.16-3.58-.24-7.23-.24-10.95V3668Zm32.99 183.4h1247.3v44.43H2967.36c-46.7 0-82.88-12.84-108.56-38.52-1.91-1.91-3.76-3.88-5.53-5.91Zm-32.99-366.8h1280.29v91.7H2820.28v-91.7Zm0-183.4h310.97v91.7h-310.97v-91.7Zm0-183.4h310.97v91.7h-310.97v-91.7Zm0-183.4h2024.09v91.7H2820.28v-91.7Zm1582.52 183.4h441.57v91.7h-385.28c-2.16-8.4-4.94-16.58-8.33-24.55-9.34-21.95-22.18-41.32-38.52-58.13-3.04-3.13-6.19-6.14-9.44-9.02ZM2820.65 2751h2023.72v91.7H2820.28v-77.28c0-4.93.12-9.73.37-14.42Zm6791.91 0h420.24v91.7h-420.24V2751Zm-1241.45 0h877.25v91.7h-789.34l-87.91-91.7Zm-1188.87 0h423.03v91.7h-423.03V2751Zm-1747.48 0h1152.89l-52.76 91.7H5487.52l-52.76-91.7Zm6181.54 91.7H10397V2751h1151.7c26.5 27.02 49 57.59 67.6 91.7Zm56.1 183.4H10397v-91.7h1257.3c8.6 29.19 14.7 59.76 18.1 91.7Zm3.5 183.4H10397v-91.7h1278.9v91.7Zm0 183.4H10397v-91.7h1278.9v91.7Zm-21.1 183.4H10397v-91.7h1275.6c-3.4 32.09-9.3 62.65-17.8 91.7Zm-105.5 183.4H10397V3668h1219.9c-18.6 34.03-41.1 64.59-67.6 91.7Zm-1152.3 91.7h1020.6c-7.9 3.55-15.8 6.93-24 10.11-58.3 22.88-123 34.32-194 34.32H10397v-44.43Zm-5552.63-91.7h-379.6V3668h379.6v91.7Zm761.5 0h-397.3V3668h344.95l52.35 91.7Zm1209.37 0h-395.58l52.12-91.7h343.46v91.7Zm790.03 0h-423.03V3668h423.03v91.7Zm1239.92 0h-875.72V3668h787.9l87.82 91.7Zm1187.61 0h-420.24V3668h420.24v91.7Zm-5568.03-275.1h379.6v91.7h-379.6v-91.7Zm0-183.4h379.6v91.7h-379.6v-91.7Zm1075.51-366.8h941.86l-52.76 91.7h-836.35l-52.75-91.7Zm-331.71 183.4h30.84l52.35 91.7h-83.19v-91.7Zm437.22 0h730.83l-52.76 91.7h-625.31l-52.76-91.7Zm3966.77-183.4h420.24v91.7h-420.24v-91.7Zm-1065.64 0h701.44v91.7h-613.53l-87.91-91.7Zm-1364.68 0h423.03v91.7h-423.03v-91.7Zm2850.56 275.1h-420.24v-91.7h420.24v91.7Zm0 183.4h-420.24v-91.7h420.24v91.7Zm0 183.4h-420.24v-91.7h420.24v91.7ZM5962.33 3668h97.75l-48.87 84.96-48.88-84.96Zm-461.16-91.7h-292.6v-91.7h240.25l52.35 91.7Zm1314.07 0h-291.33l52.12-91.7h239.21v91.7Zm790.03 0h-423.03v-91.7h423.03v91.7Zm1064.28 0h-700.08v-91.7h612.26l87.82 91.7Zm-3460.98-275.1h135.54l52.35 91.7h-187.89v-91.7Zm1575.97-183.4h30.7v91.7h-82.83l52.13-91.7ZM5751.3 3301.2h519.81l-52.76 91.7h-414.29l-52.76-91.7Zm1430.94-183.4h423.03v91.7h-423.03v-91.7Zm787.23-183.4h85.36l87.82 91.7h-173.18v-91.7Zm753.27 183.4h525.62v91.7h-437.72l-87.9-91.7Zm525.62 275.1h-261.91l-87.9-91.7h349.81v91.7Zm0 183.4h-86.09l-87.91-91.7h174v91.7Zm-3135.52 0h-203.27l-52.75-91.7h308.78l-52.76 91.7Zm702.4-183.4h-187.08l52.13-91.7h134.95v91.7Zm790.03 0h-423.03v-91.7h423.03v91.7Zm888.65 0h-524.45v-91.7h436.63l87.82 91.7Zm-524.45-275.1h260.99l87.82 91.7h-348.81v-91.7ZM14769.3 4585v91.7H0V4585h14769.3Zm0-183.4v91.7H0v-91.7h14769.3Zm0-2384.2v91.7H0v-91.7h14769.3Zm0-183.4v91.7H0V1834h14769.3ZM5228.07 5944.56c0 73.35-12.73 140.82-38.21 202.41-25.48 61.6-60.61 114.65-105.41 159.16-44.79 44.52-97.98 79.37-159.57 104.57-61.59 25.19-128.5 37.79-200.73 37.79h-589.6c-15.68 0-30.24-2.8-43.67-8.4-13.44-5.6-25.06-13.29-34.86-23.09s-17.5-21.42-23.1-34.86c-5.59-13.44-8.39-27.99-8.39-43.67v-984.34c0-15.12 2.8-29.4 8.39-42.84 5.6-13.44 13.3-25.19 23.1-35.27 9.8-10.08 21.42-17.92 34.86-23.52 13.43-5.6 27.99-8.4 43.67-8.4h589.6c72.23 0 139.14 12.6 200.73 37.8 61.59 25.19 114.78 60.05 159.57 104.56 44.8 44.52 79.93 97.71 105.41 159.58 25.48 61.87 38.21 129.2 38.21 201.99v196.53Zm-218.36-196.53c0-42.55-6.86-81.47-20.58-116.74-13.72-35.28-33.18-65.37-58.37-90.29-25.2-24.92-55.29-44.23-90.29-57.95-35-13.72-73.77-20.58-116.32-20.58h-481.26v767.65h481.26c42.55 0 81.32-6.86 116.32-20.57 35-13.72 65.09-33.04 90.29-57.96 25.19-24.91 44.65-54.87 58.37-89.86 13.72-35 20.58-74.05 20.58-117.17v-196.53Zm1422.75 208.29h-689.54v-220.05h689.54v220.05Zm98.27 492.17h-787.81c-30.23 0-63.27-5.32-99.1-15.96-35.84-10.63-69.01-28.13-99.53-52.49-30.52-24.35-55.99-55.99-76.43-94.9-20.44-38.92-30.66-86.65-30.66-143.2v-787.81c0-15.12 2.81-29.4 8.4-42.84 5.6-13.44 13.3-25.19 23.1-35.27 9.8-10.08 21.42-17.92 34.86-23.52 13.43-5.6 27.99-8.4 43.67-8.4h983.5v218.37h-875.16v679.47c0 28.55 7.56 50.39 22.68 65.51 15.12 15.11 37.24 22.67 66.35 22.67h786.13v218.37Zm1612.57 0h-220.05v-717.26l-387.18 681.15c-9.52 17.35-22.82 30.51-39.9 39.47-17.07 8.96-35.41 13.44-55.01 13.44-19.04 0-36.81-4.48-53.33-13.44-16.52-8.96-29.54-22.12-39.06-39.47l-388.86-681.15v717.26h-218.37V5337.33c0-25.2 7.42-47.59 22.26-67.19 14.84-19.6 34.29-32.76 58.37-39.48 11.76-2.8 23.52-3.78 35.27-2.94 11.76.84 23.1 3.36 34.02 7.56 10.92 4.2 20.86 10.08 29.82 17.64 8.95 7.56 16.51 16.66 22.67 27.3l497.21 864.23 497.21-864.23c12.88-21.28 30.66-36.4 53.33-45.36 22.68-8.96 46.34-10.35 70.97-4.2 23.52 6.72 42.84 19.88 57.95 39.48 15.12 19.6 22.68 41.99 22.68 67.19v1111.16Zm1517.67-487.13c0 73.35-12.6 140.82-37.8 202.41-25.19 61.59-60.19 114.79-104.98 159.58-44.8 44.79-97.85 79.65-159.16 104.56-61.31 24.92-128.08 37.38-200.31 37.38h-295.64c-72.23 0-139.14-12.46-200.73-37.38-61.59-24.91-114.78-59.77-159.58-104.56-44.79-44.79-79.93-97.99-105.4-159.58-25.48-61.59-38.22-129.06-38.22-202.41v-230.13c0-72.79 12.74-140.12 38.22-201.99 25.47-61.87 60.61-115.06 105.4-159.58 44.8-44.51 97.99-79.36 159.58-104.56 61.59-25.2 128.5-37.8 200.73-37.8h295.64c72.23 0 139 12.6 200.31 37.8 61.31 25.2 114.36 60.05 159.16 104.56 44.79 44.52 79.79 97.71 104.98 159.58 25.2 61.87 37.8 129.2 37.8 201.99v230.13Zm-218.37-230.13c0-43.11-6.86-82.16-20.58-117.16-13.72-35-33.03-64.95-57.95-89.87-24.92-24.91-54.87-44.23-89.87-57.95-34.99-13.72-73.49-20.58-115.48-20.58h-295.64c-42.55 0-81.33 6.86-116.32 20.58-35 13.72-65.09 33.04-90.29 57.95-25.2 24.92-44.65 54.87-58.37 89.87-13.72 35-20.58 74.05-20.58 117.16v230.13c0 43.11 6.86 82.17 20.58 117.16 13.72 35 33.17 64.96 58.37 89.87 25.2 24.92 55.29 44.23 90.29 57.95 34.99 13.72 73.77 20.58 116.32 20.58h293.96c42.55 0 81.33-6.86 116.32-20.58 35-13.72 65.09-33.03 90.29-57.95 25.19-24.91 44.65-54.87 58.37-89.87 13.72-34.99 20.58-74.05 20.58-117.16v-230.13Zm577.8 607.24c0 15.12-2.9 29.25-8.8 42.41-5.9 13.16-13.7 24.64-23.5 34.44-9.8 9.79-21.28 17.49-34.43 23.09-13.16 5.6-27.02 8.4-41.58 8.4-15.12 0-29.25-2.8-42.41-8.4-13.16-5.6-24.64-13.3-34.44-23.09-9.8-9.8-17.49-21.28-23.09-34.44-5.6-13.16-8.4-27.29-8.4-42.41 0-14.56 2.8-28.42 8.4-41.58 5.6-13.15 13.29-24.63 23.09-34.43s21.28-17.64 34.44-23.52c13.16-5.88 27.29-8.82 42.41-8.82 14.56 0 28.42 2.94 41.58 8.82 13.15 5.88 24.63 13.72 34.43 23.52 9.8 9.8 17.6 21.28 23.5 34.43 5.9 13.16 8.8 27.02 8.8 41.58Zm1396.8-154.54c0 26.88-4.7 55.71-13.9 86.51-9.2 30.79-24.4 59.35-45.4 85.67-20.9 26.31-48.2 48.29-81.8 65.92-33.6 17.64-74.8 26.46-123.5 26.46h-829c-15.6 0-30.2-2.8-43.6-8.4-13.5-5.6-25.1-13.29-34.9-23.09-9.8-9.8-17.5-21.42-23.1-34.86-5.6-13.44-8.4-27.99-8.4-43.67v-984.34c0-15.12 2.8-29.4 8.4-42.84 5.6-13.44 13.3-25.19 23.1-35.27 9.8-10.08 21.4-17.92 34.9-23.52 13.4-5.6 28-8.4 43.6-8.4h730.7c26.9 0 55.7 4.76 86.5 14.28 30.8 9.52 59.5 24.78 86.1 45.77 26.6 21 48.7 48.3 66.4 81.89 17.6 33.6 26.4 74.75 26.4 123.46v41.16c0 38.63-6.4 80.21-19.3 124.72-12.9 44.52-33.6 86.65-62.1 126.4 24.6 15.12 47.7 33.32 69.3 54.6 21.5 21.27 40.4 45.91 56.6 73.9 16.3 28 29.2 59.64 38.7 94.91 9.5 35.28 14.3 74.19 14.3 116.75v41.99Zm-218.4-41.99c0-28.56-4.5-54.18-13.4-76.85-9-22.68-21.6-42.14-37.8-58.38-16.3-16.23-35.9-28.69-58.8-37.37-23-8.68-48.7-13.02-77.3-13.02h-492.2v-220.05h393.9c28.6 0 54.3-4.34 77.3-13.02s42.6-21.13 58.8-37.37c16.2-16.24 28.7-35.7 37.4-58.37 8.6-22.68 13-48.29 13-76.85v-41.16c0-31.35-15.1-47.03-45.4-47.03H10432v767.65h720.6c3.9 0 8.7-.28 14.3-.84 5.6-.56 10.6-2.24 15.1-5.04s8.4-7.56 11.8-14.27c3.3-6.72 5-15.96 5-27.72v-40.31Zm628.2 306.55h-218.3V5244.1h218.3v1204.39Zm1343.8-986.02h-481.2v986.02h-218.4v-986.02h-482.1V5244.1h1181.7v218.37Zm1317.8 631.59c0 43.12-5.5 81.89-16.4 116.33-10.9 34.43-25.3 64.81-43.2 91.12-17.9 26.32-38.9 48.72-63 67.19-24.1 18.48-49 33.6-74.8 45.36-25.7 11.76-51.9 20.43-78.5 26.03-26.6 5.6-51.6 8.4-75.2 8.4h-842.4v-218.37h842.4c42 0 74.6-12.32 97.9-36.95 23.2-24.64 34.8-57.67 34.8-99.11 0-20.16-3-38.63-9.2-55.43-6.2-16.8-15-31.36-26.5-43.67-11.4-12.32-25.4-21.84-42-28.56-16.5-6.72-34.8-10.08-55-10.08h-502.2c-35.3 0-73.4-6.3-114.2-18.9-40.9-12.59-78.8-32.89-113.8-60.89-35-27.99-64.2-64.67-87.4-110.02-23.2-45.36-34.8-100.79-34.8-166.3s11.6-120.8 34.8-165.87c23.2-45.08 52.4-81.75 87.4-110.03 35-28.28 72.9-48.71 113.8-61.31 40.8-12.6 78.9-18.9 114.2-18.9h743.3v218.37h-743.3c-41.4 0-73.8 12.6-97 37.8-23.3 25.19-34.9 58.51-34.9 99.94 0 42 11.6 75.17 34.9 99.53 23.2 24.35 55.6 36.53 97 36.53h503.9c23.5.56 48.4 3.78 74.8 9.66 26.3 5.88 52.5 14.98 78.5 27.3s50.8 27.85 74.3 46.61c23.5 18.76 44.4 41.3 62.6 67.61 18.2 26.32 32.6 56.55 43.2 90.71 10.7 34.15 16 72.79 16 115.9Z" style="fill:#181715" transform="translate(0 -1834)"/>
</svg>
