<?xml version="1.0" encoding="UTF-8" standalone="no"?><!DOCTYPE svg PUBLIC "-//W3C//DTD SVG 1.1//EN" "http://www.w3.org/Graphics/SVG/1.1/DTD/svg11.dtd"><svg width="100%" height="100%" viewBox="0 0 74 75" version="1.1" xmlns="http://www.w3.org/2000/svg" xmlns:xlink="http://www.w3.org/1999/xlink" xml:space="preserve" xmlns:serif="http://www.serif.com/" style="fill-rule:evenodd;clip-rule:evenodd;stroke-linejoin:round;stroke-miterlimit:2;"><path d="M37.474,30.869l35.317,0.05c3.083,14.604 -2.553,44.014 -35.317,44.014c-20.695,-0 -37.474,-16.774 -37.474,-37.467c0,-20.692 16.779,-37.466 37.474,-37.466c9.721,-0 18.576,3.701 25.234,9.768l-10.545,10.542c-3.953,-3.386 -9.075,-5.444 -14.689,-5.444c-12.482,0 -22.605,10.118 -22.605,22.599c0,12.481 10.12,22.598 22.605,22.598c10.485,0 17.733,-6.205 20.399,-14.88l-20.399,-0l0,-14.314Z" style="fill:#fff;fill-rule:nonzero;"/></svg>